<svg width="756" height="240" viewBox="0 0 756 240" fill="none" xmlns="http://www.w3.org/2000/svg">
<path d="M26.68 190C16.952 190 10.04 188.123 5.944 184.368C2.01867 180.443 0.0560007 174.725 0.0560007 167.216C0.0560007 164.997 0.141334 161.499 0.312 156.72C0.653334 151.771 1.08 145.968 1.592 139.312C2.104 132.656 2.616 125.403 3.128 117.552C3.81067 109.701 4.49333 101.68 5.176 93.488C6.02933 83.4187 6.712 74.8 7.224 67.632C7.90667 60.2933 8.41867 54.064 8.76 48.944C9.10133 43.6533 9.35733 39.3013 9.528 35.888C9.86933 32.304 10.04 29.232 10.04 26.672C10.2107 23.9413 10.296 21.4667 10.296 19.248C10.4667 17.0293 10.552 14.64 10.552 12.08C10.552 10.7147 10.9787 9.776 11.832 9.26399C12.6853 8.58132 13.5387 8.23999 14.392 8.23999C18.8293 8.23999 23.6933 8.15466 28.984 7.98399C34.2747 7.64265 39.5653 7.30132 44.856 6.95999C50.1467 6.61866 55.2667 6.36266 60.216 6.19199C65.1653 5.85066 69.5173 5.67999 73.272 5.67999C84.1947 5.67999 93.5813 7.04532 101.432 9.77599C109.283 12.336 115.597 16.176 120.376 21.296C125.325 26.2453 128.909 32.304 131.128 39.472C133.517 46.64 134.712 54.832 134.712 64.048C134.712 74.1173 133.347 83.8453 130.616 93.232C128.056 102.448 123.96 110.64 118.328 117.808C112.696 124.976 105.443 130.693 96.568 134.96C87.6933 139.227 77.112 141.36 64.824 141.36C57.4853 141.36 51.256 140.592 46.136 139.056L42.552 186.16C42.3813 187.525 42.04 188.549 41.528 189.232C41.016 189.744 39.992 190 38.456 190H26.68ZM68.152 44.08C65.9333 44.08 63.4587 44.2507 60.728 44.592C57.9973 44.7627 55.096 45.0187 52.024 45.36C51.6827 52.528 51.256 61.232 50.744 71.472C50.232 81.712 49.5493 92.464 48.696 103.728C51.256 104.411 53.7307 104.923 56.12 105.264C58.68 105.435 60.984 105.52 63.032 105.52C69.0053 105.52 73.784 104.155 77.368 101.424C81.1227 98.5227 84.024 95.024 86.072 90.928C88.12 86.832 89.4853 82.5653 90.168 78.128C90.8507 73.6907 91.192 69.8507 91.192 66.608C91.192 59.2693 89.4853 53.7227 86.072 49.968C82.8293 46.0427 76.856 44.08 68.152 44.08ZM207.132 192.56C199.623 192.56 192.113 191.621 184.604 189.744C177.265 187.867 170.609 184.624 164.636 180.016C158.833 175.408 154.055 169.264 150.3 161.584C146.545 153.904 144.668 144.261 144.668 132.656C144.668 128.389 145.009 123.269 145.692 117.296C146.375 111.323 147.655 105.179 149.532 98.864C151.58 92.5493 154.311 86.32 157.724 80.176C161.308 73.8613 165.916 68.2293 171.548 63.28C177.18 58.3307 184.007 54.32 192.028 51.248C200.049 48.176 209.607 46.64 220.7 46.64C229.575 46.64 237.084 47.664 243.228 49.712C249.372 51.76 254.321 54.576 258.076 58.16C261.831 61.5733 264.561 65.584 266.268 70.192C267.975 74.8 268.828 79.7493 268.828 85.04C268.828 92.8907 267.207 99.5467 263.964 105.008C260.892 110.469 256.796 115.077 251.676 118.832C246.727 122.416 241.18 125.232 235.036 127.28C228.892 129.328 222.833 130.949 216.86 132.144C210.887 133.168 205.34 133.851 200.22 134.192C195.271 134.363 191.431 134.448 188.7 134.448C188.7 137.691 189.127 140.933 189.98 144.176C191.004 147.248 192.455 149.979 194.332 152.368C196.209 154.757 198.684 156.72 201.756 158.256C204.828 159.792 208.583 160.56 213.02 160.56C217.457 160.56 220.871 159.877 223.26 158.512C225.82 156.976 227.868 155.355 229.404 153.648C230.94 151.771 232.22 150.149 233.244 148.784C234.439 147.248 235.975 146.48 237.852 146.48C238.705 146.48 240.156 146.736 242.204 147.248C244.423 147.589 246.641 148.443 248.86 149.808C251.079 151.173 253.041 153.051 254.748 155.44C256.455 157.829 257.308 160.901 257.308 164.656C257.308 169.605 255.772 173.872 252.7 177.456C249.628 181.04 245.617 183.941 240.668 186.16C235.889 188.379 230.513 190 224.54 191.024C218.567 192.048 212.764 192.56 207.132 192.56ZM211.996 80.688C208.241 80.688 204.999 81.7973 202.268 84.016C199.708 86.064 197.489 88.7093 195.612 91.952C193.905 95.1947 192.54 98.7787 191.516 102.704C190.663 106.629 189.98 110.384 189.468 113.968C200.049 113.797 208.583 112.005 215.068 108.592C221.724 105.179 225.052 100.315 225.052 94C225.052 90.5867 223.943 87.5147 221.724 84.784C219.676 82.0533 216.433 80.688 211.996 80.688ZM366.934 110.384C365.91 110.384 364.715 110.384 363.35 110.384C362.155 110.213 360.961 110.043 359.766 109.872C358.571 109.531 357.547 109.189 356.694 108.848C355.841 108.336 355.414 107.739 355.414 107.056C355.414 104.837 355.499 102.789 355.67 100.912C355.841 99.0347 355.926 97.072 355.926 95.024C355.926 91.2693 355.414 88.1973 354.39 85.808C353.366 83.4187 351.318 82.224 348.246 82.224C343.467 82.224 339.457 85.3813 336.214 91.696C333.142 97.84 331.179 107.141 330.326 119.6C329.985 125.061 329.473 131.291 328.79 138.288C328.278 145.115 327.766 151.771 327.254 158.256C326.742 164.571 326.315 170.203 325.974 175.152C325.633 180.101 325.462 183.344 325.462 184.88C325.462 186.587 324.865 187.867 323.67 188.72C322.475 189.573 321.195 190 319.83 190H310.614C305.323 190 300.971 189.488 297.558 188.464C294.315 187.269 291.67 185.648 289.622 183.6C287.745 181.552 286.379 179.077 285.526 176.176C284.843 173.104 284.502 169.605 284.502 165.68C284.502 163.12 284.587 159.536 284.758 154.928C285.099 150.149 285.611 143.664 286.294 135.472C286.977 127.109 287.745 116.613 288.598 103.984C289.622 91.184 290.817 75.3973 292.182 56.624C292.523 51.6747 294.315 49.2 297.558 49.2H307.542C312.321 49.2 316.331 49.712 319.574 50.736C322.817 51.76 325.462 53.2107 327.51 55.088C329.558 56.7947 331.009 58.8427 331.862 61.232C332.886 63.6213 333.569 66.096 333.91 68.656C335.958 64.7307 338.347 61.4027 341.078 58.672C343.979 55.7707 346.966 53.4667 350.038 51.76C353.11 49.8827 356.267 48.6027 359.51 47.92C362.753 47.0667 365.739 46.64 368.47 46.64C371.713 46.64 374.955 47.2373 378.198 48.432C381.611 49.6267 384.683 51.4187 387.414 53.808C390.145 56.1973 392.278 59.2693 393.814 63.024C395.521 66.7787 396.374 71.216 396.374 76.336C396.374 80.944 395.691 85.296 394.326 89.392C392.961 93.488 390.998 97.1573 388.438 100.4C385.878 103.472 382.721 105.947 378.966 107.824C375.382 109.531 371.371 110.384 366.934 110.384ZM528.346 169.264C528.346 170.117 527.919 171.824 527.066 174.384C526.213 176.944 524.847 179.589 522.97 182.32C521.093 185.051 518.703 187.44 515.802 189.488C513.071 191.536 509.743 192.56 505.818 192.56C501.21 192.56 496.602 191.024 491.994 187.952C487.557 184.88 483.119 180.699 478.682 175.408C474.245 170.117 469.722 163.888 465.114 156.72C460.677 149.381 456.154 141.445 451.546 132.912C450.863 141.957 450.181 150.832 449.498 159.536C448.815 168.24 448.133 176.688 447.45 184.88C447.279 186.928 446.853 188.293 446.17 188.976C445.487 189.659 444.037 190 441.818 190H432.602C427.311 190 422.959 189.488 419.546 188.464C416.133 187.269 413.487 185.648 411.61 183.6C409.733 181.552 408.367 178.992 407.514 175.92C406.831 172.677 406.49 169.008 406.49 164.912C406.49 162.864 406.575 160.731 406.746 158.512C406.917 156.293 407.173 153.136 407.514 149.04C407.855 144.944 408.282 139.568 408.794 132.912C409.477 126.256 410.245 117.467 411.098 106.544C411.951 95.6213 412.89 82.224 413.914 66.352C415.109 50.3093 416.389 30.8533 417.754 7.98399C417.925 4.22932 418.351 2.01066 419.034 1.32799C419.546 0.815994 420.911 0.559998 423.13 0.559998H433.114C438.405 0.559998 442.757 1.15733 446.17 2.35199C449.583 3.54666 452.314 5.16799 454.362 7.21599C456.41 9.26399 457.775 11.6533 458.458 14.384C459.311 17.1147 459.738 19.9307 459.738 22.832C459.738 24.5387 459.567 27.44 459.226 31.536C459.055 35.4613 458.799 40.3253 458.458 46.128C458.117 51.76 457.605 58.16 456.922 65.328C456.41 72.496 455.898 80.0053 455.386 87.856L496.346 50.48C497.882 49.1147 499.247 48.176 500.442 47.664C501.807 47.152 502.831 46.896 503.514 46.896C505.391 46.896 507.439 48.0907 509.658 50.48C511.877 52.8693 513.925 55.6853 515.802 58.928C517.85 62 519.471 65.2427 520.666 68.656C522.031 71.8987 522.714 74.544 522.714 76.592C522.714 81.5413 518.703 86.7467 510.682 92.208C502.831 97.6693 490.885 103.813 474.842 110.64C482.01 118.661 488.837 126 495.322 132.656C501.807 139.312 507.439 145.2 512.218 150.32C517.167 155.44 521.093 159.621 523.994 162.864C526.895 166.107 528.346 168.24 528.346 169.264ZM574.442 192.304C563.861 192.304 556.266 189.488 551.658 183.856C547.05 178.224 544.746 168.923 544.746 155.952C544.746 153.904 544.831 151.344 545.002 148.272C545.343 145.2 545.685 141.275 546.026 136.496C546.538 131.547 547.135 125.488 547.818 118.32C548.501 111.152 549.183 102.448 549.866 92.208C550.719 81.968 551.573 69.936 552.426 56.112C553.45 42.288 554.474 26.2453 555.498 7.98399C555.669 4.22932 556.095 2.01066 556.778 1.32799C557.29 0.815994 558.655 0.559998 560.874 0.559998H570.858C575.978 0.559998 580.245 1.15733 583.658 2.35199C587.071 3.54666 589.802 5.16799 591.85 7.21599C593.898 9.26399 595.349 11.6533 596.202 14.384C597.055 16.944 597.482 19.6747 597.482 22.576C597.482 25.9893 597.226 30.9387 596.714 37.424C596.373 43.7387 595.861 50.9067 595.178 58.928C594.495 66.9493 593.813 75.312 593.13 84.016C592.447 92.72 591.765 101.083 591.082 109.104C590.399 116.955 589.802 124.037 589.29 130.352C588.949 136.667 588.778 141.445 588.778 144.688C588.778 149.125 589.546 152.283 591.082 154.16C592.789 156.037 594.581 157.403 596.458 158.256C598.335 158.939 600.042 159.451 601.578 159.792C603.285 159.963 604.138 160.475 604.138 161.328C604.138 165.083 603.711 168.837 602.858 172.592C602.005 176.176 600.469 179.504 598.25 182.576C596.031 185.477 592.959 187.867 589.034 189.744C585.279 191.451 580.415 192.304 574.442 192.304ZM670.892 72.752C670.892 76.6773 670.636 81.3707 670.124 86.832C669.612 92.1227 669.015 97.4987 668.332 102.96C667.82 108.251 667.308 113.285 666.796 118.064C666.284 122.672 666.028 126.256 666.028 128.816C666.028 135.301 667.564 140.165 670.636 143.408C673.879 146.48 677.804 148.016 682.412 148.016C690.433 148.016 696.833 143.835 701.612 135.472C706.391 127.109 709.377 116.016 710.572 102.192L714.668 54.32C714.839 52.4427 715.436 51.1627 716.46 50.48C717.655 49.6267 718.935 49.2 720.3 49.2H729.516C733.1 49.2 736.428 49.5413 739.5 50.224C742.743 50.736 745.559 51.8453 747.948 53.552C750.337 55.088 752.215 57.2213 753.58 59.952C754.945 62.6827 755.628 66.1813 755.628 70.448C755.628 72.1547 755.457 75.3973 755.116 80.176C754.945 84.784 754.519 91.5253 753.836 100.4C753.324 109.104 752.556 120.197 751.532 133.68C750.508 146.992 749.313 163.291 747.948 182.576C747.095 193.84 744.535 203.141 740.268 210.48C736.172 217.989 730.967 223.877 724.652 228.144C718.337 232.581 711.255 235.653 703.404 237.36C695.553 239.067 687.532 239.92 679.34 239.92C670.636 239.92 662.615 239.152 655.276 237.616C648.108 236.08 641.879 233.947 636.588 231.216C631.297 228.485 627.116 225.328 624.044 221.744C621.143 218.16 619.692 214.32 619.692 210.224C619.692 206.981 620.375 204.165 621.74 201.776C623.276 199.387 625.239 197.424 627.628 195.888C630.017 194.352 632.748 193.157 635.82 192.304C639.063 191.621 642.391 191.28 645.804 191.28C647.511 191.28 648.705 192.133 649.388 193.84C650.241 195.547 651.436 197.424 652.972 199.472C654.679 201.691 657.324 203.653 660.908 205.36C664.492 207.067 669.868 207.92 677.036 207.92C683.351 207.92 688.471 206.384 692.396 203.312C696.321 200.24 699.308 196.315 701.356 191.536C703.575 186.757 705.025 181.552 705.708 175.92C706.391 170.288 706.732 164.912 706.732 159.792C704.001 164.571 700.929 168.496 697.516 171.568C694.273 174.469 690.86 176.773 687.276 178.48C683.692 180.016 680.108 181.04 676.524 181.552C672.94 182.064 669.527 182.32 666.284 182.32C659.969 182.32 654.167 181.467 648.876 179.76C643.756 178.053 639.319 175.323 635.564 171.568C631.809 167.643 628.908 162.608 626.86 156.464C624.812 150.32 623.788 142.896 623.788 134.192C623.788 130.949 623.959 126.683 624.3 121.392C624.641 115.931 625.068 109.872 625.58 103.216C626.092 96.3893 626.604 89.0507 627.116 81.2C627.799 73.3493 628.481 65.328 629.164 57.136C629.505 51.8453 631.895 49.2 636.332 49.2H644.524C649.985 49.2 654.423 49.712 657.836 50.736C661.249 51.76 663.895 53.296 665.772 55.344C667.82 57.2213 669.185 59.696 669.868 62.768C670.551 65.6693 670.892 68.9973 670.892 72.752Z" fill="#EC7785"/>
</svg>
